<?xml version="1.0" encoding="UTF-8" standalone="no"?>
<!-- Generator: Adobe Illustrator 15.0.2, SVG Export Plug-In . SVG Version: 6.00 Build 0)  -->

<svg
   xmlns:dc="http://purl.org/dc/elements/1.1/"
   xmlns:cc="http://creativecommons.org/ns#"
   xmlns:rdf="http://www.w3.org/1999/02/22-rdf-syntax-ns#"
   xmlns:svg="http://www.w3.org/2000/svg"
   xmlns="http://www.w3.org/2000/svg"
   xmlns:xlink="http://www.w3.org/1999/xlink"
   xmlns:sodipodi="http://sodipodi.sourceforge.net/DTD/sodipodi-0.dtd"
   xmlns:inkscape="http://www.inkscape.org/namespaces/inkscape"
   version="1.1"
   id="Icon"
   x="0px"
   y="0px"
   viewBox="0 0 132 66"
   enable-background="new 0 0 611 611"
   xml:space="preserve"
   inkscape:version="0.48.4 r9939"
   width="100%"
   height="100%"
   sodipodi:docname="sourceicon.svg"><metadata
   id="metadata3073"><rdf:RDF><cc:Work
       rdf:about=""><dc:format>image/svg+xml</dc:format><dc:type
         rdf:resource="http://purl.org/dc/dcmitype/StillImage" /></cc:Work></rdf:RDF></metadata><defs
   id="defs3071"><linearGradient
     inkscape:collect="always"
     xlink:href="#SVGID_3_"
     id="linearGradient3106"
     gradientUnits="userSpaceOnUse"
     gradientTransform="matrix(0.1016318,0,0,-0.09924943,1.7462903,54.541429)"
     x1="242.0679"
     y1="223.3862"
     x2="370.25589"
     y2="223.3862" /></defs><sodipodi:namedview
   pagecolor="#000000"
   bordercolor="#666666"
   borderopacity="1"
   objecttolerance="10"
   gridtolerance="10"
   guidetolerance="10"
   inkscape:pageopacity="0"
   inkscape:pageshadow="2"
   inkscape:window-width="1366"
   inkscape:window-height="705"
   id="namedview3069"
   showgrid="false"
   showguides="true"
   inkscape:guide-bbox="true"
   inkscape:zoom="8"
   inkscape:cx="73.013137"
   inkscape:cy="33.591686"
   inkscape:window-x="-8"
   inkscape:window-y="-8"
   inkscape:window-maximized="1"
   inkscape:current-layer="Icon"><sodipodi:guide
     orientation="1,0"
     position="66,15"
     id="guide3075" /></sodipodi:namedview>
<linearGradient
   id="SVGID_1_"
   gradientUnits="userSpaceOnUse"
   x1="342.77731"
   y1="314.27829"
   x2="342.77731"
   y2="302.77829"
   gradientTransform="matrix(5.3904084,0,0,-5.2640509,-1814.8618,1657.3136)">
	<stop
   offset="0"
   style="stop-color:#004889"
   id="stop3043" />
	<stop
   offset="1"
   style="stop-color:#00346E"
   id="stop3045" />
</linearGradient>

<path
   style="fill:#333333;fill-opacity:1"
   d="M 30.769722,1.34769 C 28.362076,1.3900631 25.969814,1.5227442 23.580033,1.727664 19.078471,2.1379739 14.617102,2.8727661 10.338264,4.2186052 7.1940666,5.3690803 2.8991811,6.753614 2.375,10.213751 c 1.0563526,7.934518 2.8499756,15.821316 4.231906,23.727272 0.5164851,2.250799 0.3823284,5.00576 2.6847576,6.501778 4.7000184,3.409855 10.8112094,4.62989 16.6545954,5.319638 8.709514,0.763227 17.891566,0.168539 25.846479,-3.377548 2.183298,-1.100593 4.816257,-2.431586 5.324011,-4.855223 C 58.712084,29.14904 60.31181,20.769019 61.803698,12.366939 61.963527,11.036386 62.412409,9.4926279 61.348655,8.3561009 59.156625,5.7525144 55.512816,4.6406825 52.202277,3.6697538 45.246929,1.883904 37.992661,1.2205688 30.769722,1.34769 z m 1.13761,4.3485923 c 4.016378,-0.00353 8.043465,0.2660898 12.013152,0.8021675 2.771261,0.4958564 5.939066,0.8459824 7.781245,3.0397927 C 49.081714,11.933724 45.15951,12.109513 41.690769,12.620256 35.3858,13.239071 29.019532,13.203945 22.715451,12.578028 19.237978,12.103894 15.358623,11.840256 12.658986,9.5382369 14.295313,7.4090566 17.306278,7.0794092 19.89418,6.5828827 23.860018,6.0108627 27.890954,5.6997987 31.907332,5.6962766 z M 31.67981,22.837335 c 4.705126,-0.186922 9.474335,3.054503 9.919951,7.472825 0.857751,4.675911 -3.355189,9.423367 -8.554821,9.710448 -5.144433,0.554453 -10.212209,-3.409419 -10.283986,-8.106114 -0.309003,-3.532009 2.160923,-7.055542 5.733551,-8.40165 1.027179,-0.439647 2.099507,-0.632373 3.185305,-0.675509 z m 0.546052,4.264154 c -0.78354,-0.02321 -1.568455,0.160332 -2.275218,0.548851 -3.326511,1.387944 -3.291158,6.275901 0.09101,7.599482 3.033058,1.646465 7.355236,-0.89406 6.87116,-4.095276 0.01156,-2.249659 -2.336329,-3.983466 -4.68695,-4.053057 z m -21.523564,18.154318 -0.7280691,0.295535 -0.2730268,0.63329 c 0.6742419,3.747757 1.3314039,7.56197 2.4117319,11.230346 2.405875,3.784495 7.638267,4.886351 12.013152,5.741829 8.367654,1.19459 17.530292,0.978078 25.072903,-2.870914 4.478329,-2.136421 3.752821,-7.256609 4.959977,-11.019249 0.02353,-1.272897 1.484443,-3.49299 -0.500548,-4.010837 -12.648271,7.553514 -30.316729,7.561078 -42.95612,0 z"
   id="path3049"
   inkscape:connector-curvature="0" />
<linearGradient
   id="SVGID_2_"
   gradientUnits="userSpaceOnUse"
   x1="174.166"
   y1="387.88281"
   x2="438.00879"
   y2="387.88281"
   gradientTransform="matrix(0.1016318,0,0,-0.09924943,1.7462903,54.541429)">
	<stop
   offset="0"
   style="stop-color:#004889"
   id="stop3052" />
	<stop
   offset="1"
   style="stop-color:#00346E"
   id="stop3054" />
</linearGradient>

<linearGradient
   id="SVGID_3_"
   gradientUnits="userSpaceOnUse"
   x1="242.0679"
   y1="223.3862"
   x2="370.25589"
   y2="223.3862"
   gradientTransform="matrix(0.1016318,0,0,-0.09924943,1.7462903,54.541429)">
	<stop
   offset="0"
   style="stop-color:#004889"
   id="stop3059" />
	<stop
   offset="1"
   style="stop-color:#00346E"
   id="stop3061" />
</linearGradient>



<path
   style="fill:#ffffff;fill-opacity:1"
   d="m 98.56471,1.5320404 c -2.40764,0.042373 -4.79991,0.1750542 -7.18969,0.379974 -4.50156,0.4103099 -8.962929,1.1451021 -13.241767,2.4909412 -3.144198,1.1504751 -7.439083,2.5350088 -7.963264,5.9951454 1.056352,7.934518 2.849975,15.821316 4.231906,23.727272 0.516485,2.250799 0.382328,5.00576 2.684757,6.501778 4.700019,3.409855 10.81121,4.62989 16.654598,5.319638 8.70951,0.763227 17.89156,0.168539 25.84648,-3.377548 2.1833,-1.100593 4.81625,-2.431586 5.32401,-4.855223 1.59533,-8.380628 3.19506,-16.760649 4.68695,-25.162729 0.15983,-1.330553 0.60871,-2.8743107 -0.45505,-4.0108377 -2.19203,-2.6035865 -5.83583,-3.7154184 -9.14637,-4.6863471 -6.95535,-1.7858498 -14.20962,-2.449185 -21.43256,-2.3220638 z m 1.13761,4.3485923 c 4.01638,-0.00353 8.04347,0.2660898 12.01315,0.8021675 2.77126,0.4958564 5.93907,0.8459824 7.78125,3.0397927 -2.62002,2.3954811 -6.54222,2.5712701 -10.01096,3.0820131 -6.30497,0.618815 -12.67124,0.583689 -18.97532,-0.04223 C 87.032967,12.288244 83.153612,12.024606 80.453975,9.7225873 82.090302,7.593407 85.101267,7.2637596 87.689169,6.7672331 91.65501,6.1952131 95.68594,5.8841491 99.70232,5.880627 z M 99.4748,23.021685 c 4.70513,-0.186922 9.47433,3.054503 9.91995,7.472825 0.85775,4.675911 -3.35519,9.423367 -8.55482,9.710448 -5.14443,0.554453 -10.21221,-3.409419 -10.28399,-8.106114 -0.309,-3.532009 2.16093,-7.055542 5.73355,-8.40165 1.02718,-0.439647 2.09951,-0.632373 3.18531,-0.675509 z m 0.54605,4.264154 c -0.78354,-0.02321 -1.56845,0.160332 -2.27522,0.548851 -3.32651,1.387944 -3.29115,6.275901 0.091,7.599482 3.03306,1.646465 7.35524,-0.89406 6.87116,-4.095276 0.0116,-2.249659 -2.33633,-3.983466 -4.68695,-4.053057 z m -21.523563,18.154318 -0.72807,0.295535 -0.273026,0.63329 c 0.674242,3.747757 1.331404,7.56197 2.411732,11.230346 2.405875,3.784495 7.638267,4.886351 12.013157,5.741829 8.36765,1.19459 17.53029,0.978078 25.0729,-2.870914 4.47833,-2.136421 3.75282,-7.256609 4.95998,-11.019249 0.0235,-1.272897 1.48444,-3.49299 -0.50055,-4.010837 -12.64827,7.553514 -30.31673,7.561078 -42.956123,0 z"
   id="path3049-7"
   inkscape:connector-curvature="0" /></svg>